<?xml version="1.0" standalone="no"?>
<!DOCTYPE svg PUBLIC "-//W3C//DTD SVG 20010904//EN"
 "http://www.w3.org/TR/2001/REC-SVG-20010904/DTD/svg10.dtd">
<svg version="1.0" xmlns="http://www.w3.org/2000/svg"
 width="536.000000pt" height="536.000000pt" viewBox="0 0 536.000000 536.000000"
 preserveAspectRatio="xMidYMid meet">
<metadata>
Created by potrace 1.11, written by Peter Selinger 2001-2013
</metadata>
<g transform="translate(0.000000,536.000000) scale(0.100000,-0.100000)"
fill="#000000" stroke="none">
<path d="M847 4762 c-3 -4 32 -140 79 -302 46 -162 84 -301 84 -307 0 -10 -24
-13 -86 -13 -77 0 -85 -2 -80 -17 62 -209 166 -590 162 -599 -3 -8 -30 -12
-83 -11 -61 0 -78 -3 -77 -14 1 -13 136 -496 224 -799 22 -74 95 -333 164
-575 68 -242 166 -586 216 -765 183 -647 199 -703 203 -706 5 -5 598 -6 603
-1 5 5 32 129 105 482 234 1133 289 1410 289 1446 0 10 3 19 8 19 4 0 18 -57
30 -127 13 -71 54 -279 92 -463 38 -184 114 -555 169 -825 56 -269 104 -500
108 -513 l8 -22 308 -1 c169 -1 310 0 312 3 4 3 98 333 145 508 10 36 91 324
180 640 168 596 220 782 270 960 16 58 70 249 120 425 49 176 90 322 90 326 0
3 -38 4 -85 2 -47 -2 -85 0 -85 5 0 5 38 145 85 311 47 166 85 304 85 306 0 3
-38 5 -85 5 -47 0 -85 3 -85 7 0 7 18 71 126 452 24 84 41 158 38 162 -3 5
-154 9 -335 9 l-329 0 -10 -22 c-6 -13 -32 -122 -59 -243 -44 -196 -158 -694
-226 -985 -70 -302 -95 -413 -111 -495 -9 -49 -20 -93 -23 -98 -4 -4 -19 55
-34 130 -14 76 -47 237 -72 358 -25 121 -70 337 -100 480 -30 143 -79 382
-110 530 -31 149 -59 284 -62 302 -4 26 -11 32 -40 38 -48 9 -642 4 -648 -5
-5 -8 -24 -102 -155 -770 -45 -228 -103 -527 -130 -665 -27 -137 -55 -280 -61
-317 -12 -67 -29 -92 -29 -43 0 41 -73 369 -271 1220 -16 72 -53 231 -82 355
l-52 225 -347 3 c-190 1 -349 -1 -351 -6z m637 -99 c3 -10 35 -148 71 -308 37
-159 89 -387 116 -505 140 -602 171 -747 217 -1000 28 -151 54 -296 57 -322 4
-27 11 -48 15 -48 4 0 12 33 19 73 33 189 121 649 212 1112 55 281 120 614
145 740 25 127 48 240 51 253 l5 22 274 0 c151 0 274 -4 274 -8 0 -4 66 -323
146 -707 130 -627 294 -1448 294 -1477 0 -40 18 36 74 318 36 175 105 495 155
709 49 215 127 550 172 745 45 195 85 369 88 385 l7 30 253 3 c237 2 252 1
247 -15 -2 -10 -28 -101 -56 -203 -28 -102 -60 -215 -71 -252 l-20 -68 -208 0
-208 0 -26 -112 c-56 -239 -199 -857 -217 -938 -11 -47 -48 -211 -83 -365 -36
-154 -70 -307 -77 -340 -20 -106 -22 -105 -51 40 -15 77 -51 250 -79 385 -28
135 -66 319 -85 410 -19 91 -62 298 -95 460 -34 162 -69 332 -78 377 l-16 83
-155 2 -156 3 -14 83 c-8 45 -17 82 -21 82 -4 0 -12 -38 -19 -85 l-13 -85
-152 0 -153 0 -11 -52 c-6 -29 -29 -147 -52 -263 -22 -115 -72 -367 -110 -560
-136 -689 -180 -920 -180 -939 0 -42 -17 2 -29 74 -12 67 -79 367 -277 1225
-36 154 -76 333 -91 398 l-26 117 -222 0 -222 0 -73 258 c-40 141 -75 263 -78
270 -3 9 53 12 261 12 244 0 266 -1 271 -17z m-426 -670 c70 -237 131 -466
127 -473 -3 -5 -22 -9 -41 -8 -26 1 -38 7 -45 22 -8 20 -149 512 -149 521 0 3
20 5 44 5 l44 0 20 -67z m452 -70 c17 -76 40 -174 50 -218 174 -746 288 -1257
325 -1458 25 -137 45 -253 45 -258 0 -5 -7 -9 -15 -9 -17 0 -19 7 -79 275 -25
110 -64 279 -86 375 -23 96 -61 263 -86 370 -24 107 -61 266 -81 353 l-37 157
-35 1 c-176 3 -222 6 -230 15 -7 8 -151 509 -151 527 0 4 78 7 174 7 l174 0
32 -137z m1093 130 c6 -10 -86 -514 -97 -532 -7 -10 -29 -12 -93 -9 -46 2 -86
2 -88 -2 -4 -7 -116 -569 -215 -1080 -83 -425 -89 -450 -107 -450 -11 0 -13 7
-9 28 3 15 19 104 36 197 31 167 172 898 210 1085 11 52 47 237 80 410 34 173
64 325 67 338 5 21 10 22 108 22 57 0 106 -3 108 -7z m331 -2 c8 -12 303
-1438 366 -1761 28 -146 53 -275 55 -287 4 -18 1 -23 -15 -23 -11 0 -20 3 -20
8 0 4 -16 84 -36 177 -19 94 -62 301 -95 460 -33 160 -88 425 -122 589 l-62
300 -93 -1 c-51 0 -95 4 -98 9 -4 5 -26 119 -50 251 -24 133 -46 248 -49 255
-3 8 -3 18 1 23 7 11 211 12 218 0z m1266 -3 c0 -11 -139 -519 -144 -525 -5
-6 -73 -11 -153 -12 l-91 -1 -26 -107 c-22 -96 -39 -170 -116 -503 -87 -377
-182 -788 -195 -847 -14 -60 -20 -73 -36 -73 -12 0 -19 7 -19 19 0 43 118 585
280 1291 94 410 173 751 175 758 3 9 45 12 165 12 121 0 160 -3 160 -12z m180
5 c0 -14 -140 -508 -148 -522 -9 -16 -48 -22 -73 -12 -13 5 -5 43 57 263 39
141 75 261 78 267 8 12 86 16 86 4z m-1687 -356 c31 -173 32 -188 14 -181 -9
3 -19 38 -27 89 -7 46 -16 82 -20 80 -4 -3 -13 -41 -20 -85 -12 -78 -22 -101
-35 -80 -7 11 46 330 55 330 3 0 17 -69 33 -153z m-1634 -334 c11 -38 58 -203
105 -368 84 -299 298 -1052 423 -1492 l66 -233 149 0 c140 0 148 -1 148 -19 0
-11 5 -23 10 -26 6 -4 10 5 10 19 l0 26 144 0 144 0 11 48 c13 54 82 387 146
702 24 118 67 325 95 460 64 308 103 507 125 635 10 55 21 104 25 108 4 5 10
-16 14 -45 10 -73 61 -326 235 -1172 83 -401 151 -731 151 -733 0 -1 72 -3
160 -3 159 0 160 0 161 -22 l2 -23 4 23 c4 22 7 22 151 22 l147 0 144 513 c79
281 166 589 192 682 172 611 223 791 246 873 l27 92 43 0 c24 0 43 -2 43 -4 0
-3 -38 -141 -86 -308 -47 -167 -103 -368 -125 -448 -22 -80 -53 -190 -69 -245
-37 -127 -158 -560 -245 -870 -36 -132 -70 -251 -75 -265 -5 -14 -25 -86 -45
-160 -21 -74 -54 -193 -75 -265 l-37 -130 -246 -3 -247 -2 -5 22 c-9 38 -74
350 -115 553 -21 105 -62 300 -90 435 -84 407 -156 770 -206 1053 -27 147 -51
267 -54 267 -3 0 -34 -159 -68 -353 -35 -193 -124 -642 -197 -997 -74 -355
-149 -719 -167 -810 l-33 -165 -240 -3 -240 -2 -77 272 c-42 150 -142 503
-222 783 -79 281 -183 647 -231 815 -190 671 -226 796 -231 813 -5 14 1 17 40
17 l45 0 20 -67z m271 -330 c236 -834 319 -1124 325 -1134 4 -6 41 -9 91 -7
46 1 85 0 88 -2 4 -5 96 -515 96 -533 0 -4 -48 -6 -107 -5 l-107 3 -22 75
c-20 69 -103 360 -359 1265 -53 187 -121 426 -151 530 -29 105 -54 194 -54
198 0 4 20 7 44 7 l43 0 113 -397z m150 394 c0 -1 20 -90 45 -197 25 -107 91
-391 146 -630 55 -239 109 -472 120 -518 10 -46 19 -88 19 -93 0 -5 -21 -9
-47 -9 l-48 0 -123 433 c-67 237 -158 558 -202 712 -44 154 -80 286 -80 293 0
9 24 12 85 12 47 0 85 -1 85 -3z m1010 -1 c0 -2 -27 -136 -61 -297 -33 -162
-78 -379 -99 -484 -22 -104 -58 -278 -80 -385 -23 -107 -44 -213 -48 -235 -7
-39 -9 -40 -50 -43 -29 -2 -42 1 -42 10 0 7 18 103 39 213 22 110 83 421 136
690 53 270 99 500 102 513 4 19 12 22 54 22 27 0 49 -2 49 -4z m117 -18 c-3
-13 -22 -113 -42 -223 -36 -198 -83 -431 -250 -1235 -47 -228 -94 -455 -104
-505 l-17 -90 -102 -3 c-56 -1 -102 1 -102 6 0 21 91 499 99 517 7 18 16 19
84 17 72 -3 77 -2 87 20 5 13 34 145 64 293 31 149 78 380 106 515 28 135 71
344 96 465 51 254 48 245 70 245 12 0 15 -6 11 -22z m166 -115 c16 -76 54
-266 87 -423 32 -157 89 -431 125 -610 37 -179 70 -335 75 -347 9 -21 15 -22
102 -21 l93 2 7 -35 c4 -19 26 -131 49 -249 22 -118 43 -225 46 -237 5 -23 4
-23 -105 -23 -76 0 -112 4 -119 13 -5 6 -35 138 -67 292 -31 154 -84 411 -117
570 -148 716 -160 777 -199 995 -17 96 -33 183 -36 193 -4 12 0 17 13 17 16 0
23 -20 46 -137z m175 85 c6 -29 38 -183 71 -343 33 -159 79 -378 101 -485 22
-107 57 -271 76 -365 19 -93 37 -178 40 -187 5 -16 -2 -18 -51 -18 -36 0 -57
4 -59 13 -2 6 -27 127 -55 267 -29 140 -58 284 -66 320 -8 36 -49 232 -90 435
-42 204 -79 380 -82 393 -5 21 -2 22 50 22 l54 0 11 -52z m1077 33 c-3 -11
-23 -82 -44 -158 -22 -76 -83 -293 -136 -483 -53 -190 -108 -383 -121 -430
-12 -47 -40 -146 -61 -220 l-39 -135 -37 -3 c-27 -2 -37 1 -37 11 0 16 42 201
155 687 41 179 96 417 121 530 25 113 48 208 51 213 2 4 38 7 79 7 70 0 75 -1
69 -19z m175 7 c0 -7 -27 -107 -59 -223 -33 -115 -85 -299 -115 -407 -31 -109
-80 -285 -110 -390 -127 -450 -269 -956 -280 -998 l-12 -45 -102 -3 c-93 -2
-102 -1 -102 16 0 25 99 514 105 520 3 3 39 6 82 6 l77 1 47 165 c49 173 221
783 339 1205 24 83 44 153 47 158 7 12 83 8 83 -5z m-2250 -1544 c0 -21 17
-17 23 6 6 25 27 27 26 3 0 -10 -8 -61 -18 -113 -20 -104 -20 -104 -46 34 -8
43 -12 83 -9 87 7 13 24 1 24 -17z m1431 -3 c1 -15 2 -15 6 1 4 17 30 31 43
23 4 -2 -1 -46 -11 -97 -31 -155 -29 -154 -54 -28 -13 63 -21 118 -19 122 8
12 34 -3 35 -21z"/>
</g>
</svg>
